<?xml version="1.0" encoding="UTF-8" standalone="no"?>
<svg
xmlns="http://www.w3.org/2000/svg"
width="100"
height="100"
viewBox="0 0 100 100"
version="1.1">
<defs />
<g>
<path
d="M 35.267,71.77 H 24.864 V 61.367 h 10.403 c 3.613,0 6.54,-2.927 6.54,-6.54 0,-3.613 -2.927,-6.54 -6.54,-6.54 H 24.864 V 38.633 h 10.403 c 3.613,0 6.54,-2.927 6.54,-6.54 0,-3.613 -2.927,-6.54 -6.54,-6.54 H 24.864 V 18.23 h 21.873 c 2.424,0 4.848,0.606 6.954,1.816 2.106,1.21 3.613,3.026 4.36,5.285 0.747,2.259 1.01,4.747 1.01,7.275 0,2.528 -0.263,5.016 -1.01,7.275 -0.747,2.259 -2.254,4.075 -4.36,5.285 -2.106,1.21 -4.53,1.816 -6.954,1.816 H 35.267 Z M 64.733,24.141 c -2.424,0 -4.848,-0.605 -6.954,-1.815 -2.106,-1.21 -3.613,-3.026 -4.36,-5.285 -0.747,-2.259 -1.01,-4.747 -1.01,-7.275 0,-2.528 0.263,-5.016 1.01,-7.275 0.747,-2.259 2.254,-4.075 4.36,-5.285 2.106,-1.21 4.53,-1.815 6.954,-1.815 h 10.403 v 10.403 h -10.403 c -3.613,0 -6.54,2.927 -6.54,6.54 0,3.613 2.927,6.54 6.54,6.54 h 10.403 v 10.403 h -10.403 c -3.613,0 -6.54,2.927 -6.54,6.54 0,3.613 2.927,6.54 6.54,6.54 h 10.403 v 10.403 h -21.873 c -2.424,0 -4.848,-0.606 -6.954,-1.816 -2.106,-1.21 -3.613,-3.026 -4.36,-5.285 -0.747,-2.259 -1.01,-4.747 -1.01,-7.275 0,-2.528 0.263,-5.016 1.01,-7.275 0.747,-2.259 2.254,-4.075 4.36,-5.285 2.106,-1.21 4.53,-1.816 6.954,-1.816 H 64.733 Z"
style="fill:#e8a800;fill-opacity:1;stroke:none;stroke-width:1.00000004;stroke-linecap:butt;stroke-linejoin:miter;stroke-miterlimit:4;stroke-dasharray:none;stroke-opacity:1" />
</g>
</svg>